<svg width="11" height="11" viewBox="0 0 11 11" fill="none" xmlns="http://www.w3.org/2000/svg">
<path d="M7.9 1.09782C9.00457 1.09782 9.9 1.99325 9.9 3.09782V7.88035C9.9 8.98492 9.00457 9.88036 7.9 9.88036H3.1C1.99543 9.88036 1.1 8.98493 1.1 7.88036V3.09782C1.1 1.99325 1.99543 1.09782 3.1 1.09782H7.9ZM11 2C11 0.89543 10.1046 0 9 0H2C0.895431 0 0 0.895431 0 2V8.97818C0 10.0827 0.895431 10.9782 2 10.9782H9C10.1046 10.9782 11 10.0827 11 8.97817V2ZM5.5 2.19563C3.6795 2.19563 2.2 3.6722 2.2 5.48909C2.2 7.30597 3.6795 8.78254 5.5 8.78254C7.3205 8.78254 8.8 7.30597 8.8 5.48909C8.8 3.6722 7.3205 2.19563 5.5 2.19563Z" fill="#039719"/>
</svg>
