<svg width="29" height="29" viewBox="0 0 29 29" fill="none" xmlns="http://www.w3.org/2000/svg">
<g clip-path="url(#clip0_3958_2472)">
<path d="M10.1024 0.953511C7.20481 1.9587 4.70596 3.86658 2.97287 6.39691C1.23977 8.92724 0.363774 11.9466 0.473546 15.0116C0.583317 18.0766 1.67307 21.0256 3.58274 23.4255C5.49241 25.8254 8.12134 27.5496 11.0834 28.3449C13.4848 28.9646 16.0007 28.9918 18.4149 28.4242C20.602 27.933 22.624 26.8822 24.2829 25.3747C26.0095 23.7578 27.2627 21.7009 27.9079 19.4252C28.6092 16.9503 28.7339 14.3477 28.2727 11.8172H14.7877V17.411H22.5973C22.4412 18.3032 22.1067 19.1547 21.6139 19.9146C21.121 20.6745 20.48 21.3272 19.729 21.8335C18.7754 22.4643 17.7003 22.8888 16.573 23.0796C15.4423 23.2898 14.2826 23.2898 13.1519 23.0796C12.0059 22.8427 10.9218 22.3697 9.96868 21.6908C8.43746 20.6069 7.28772 19.067 6.68353 17.2909C6.06912 15.4816 6.06912 13.52 6.68353 11.7107C7.1136 10.4424 7.82457 9.28769 8.76337 8.33265C9.83771 7.21966 11.1979 6.42408 12.6946 6.03322C14.1913 5.64235 15.7668 5.67129 17.2481 6.11687C18.4053 6.4721 19.4636 7.09276 20.3384 7.92937C21.219 7.05333 22.0981 6.17502 22.9756 5.29445C23.4288 4.82093 23.9227 4.37007 24.369 3.88523C23.0336 2.64248 21.466 1.67547 19.7562 1.0396C16.6425 -0.0909651 13.2357 -0.121348 10.1024 0.953511Z" fill="white"/>
<path d="M10.1024 0.953636C13.2354 -0.121954 16.6423 -0.092371 19.7562 1.03746C21.4663 1.67765 23.0331 2.64932 24.3667 3.89668C23.9136 4.38153 23.4356 4.83465 22.9734 5.3059C22.0943 6.18345 21.216 7.05798 20.3384 7.9295C19.4636 7.09289 18.4053 6.47223 17.2481 6.117C15.7673 5.66985 14.1918 5.63924 12.6947 6.02851C11.1976 6.41777 9.83662 7.21188 8.7611 8.32371C7.8223 9.27876 7.11133 10.4335 6.68126 11.7018L1.98462 8.06543C3.66573 4.7317 6.57647 2.18166 10.1024 0.953636Z" fill="#E33629"/>
<path d="M0.738695 11.6678C0.991134 10.4167 1.41023 9.2051 1.98479 8.06543L6.68143 11.7108C6.06702 13.5202 6.06702 15.4817 6.68143 17.2911C5.11664 18.4994 3.55109 19.7138 1.98479 20.9342C0.546458 18.0711 0.107792 14.8091 0.738695 11.6678Z" fill="#F8BD00"/>
<path d="M14.7876 11.8154H28.2726C28.7339 14.346 28.6091 16.9486 27.9079 19.4234C27.2627 21.6992 26.0095 23.7561 24.2829 25.3729C22.7672 24.1903 21.2447 23.0167 19.729 21.834C20.4804 21.3272 21.1218 20.6738 21.6147 19.9131C22.1075 19.1524 22.4417 18.3 22.5972 17.407H14.7876C14.7854 15.5446 14.7876 13.68 14.7876 11.8154Z" fill="#587DBD"/>
<path d="M1.98242 20.9341C3.54872 19.7258 5.11427 18.5114 6.67906 17.291C7.28445 19.0677 8.43584 20.6077 9.96875 21.6909C10.9249 22.3666 12.0113 22.8357 13.1588 23.0684C14.2894 23.2786 15.4492 23.2786 16.5798 23.0684C17.7072 22.8775 18.7822 22.4531 19.7359 21.8223C21.2516 23.0049 22.7741 24.1785 24.2898 25.3612C22.6311 26.8695 20.6091 27.9211 18.4218 28.413C16.0076 28.9805 13.4916 28.9533 11.0902 28.3337C9.19097 27.8266 7.41692 26.9326 5.8793 25.7078C4.25181 24.4157 2.92255 22.7874 1.98242 20.9341Z" fill="#319F43"/>
</g>
<defs>
<clipPath id="clip0_3958_2472">
<rect width="29" height="29" fill="white"/>
</clipPath>
</defs>
</svg>
